<svg width="223" height="107" viewBox="0 0 223 107" fill="none" xmlns="http://www.w3.org/2000/svg">
<path d="M222.694 0.5569V21.9384H182.695C182.404 21.9384 182.016 22.1808 181.531 22.6657C181.143 23.0535 180.949 23.3929 180.949 23.6838V43.029H222.694V64.556H180.949V106.737H159.568V21.793C159.665 20.8233 159.713 20.3869 159.713 20.4839C161.459 11.2719 166.55 5.06592 174.986 1.86596C177.313 0.993255 179.301 0.5569 180.949 0.5569H222.694Z" fill="black"/>
<path d="M58.7031 2.47601L0.300003 75.6807L2.92814 81.4484H58.2651V106.737H65.5655V81.4484H82.2104V74.7934H65.5655V2.47601H58.7031ZM58.2651 74.7934H9.49849L58.2651 13.5676V74.7934Z" fill="black"/>
<path d="M119.881 8.53978C132.145 8.53978 142.95 17.2652 142.95 30.723C142.95 41.6668 137.11 50.5401 120.319 66.0683L82.2108 100.97V106.738H152.003V99.3432H94.1834L125.429 70.6529C143.388 54.0894 150.98 44.6245 150.98 30.2794C150.98 14.0116 137.986 1.73692 120.611 1.73692C102.652 1.73692 93.1614 10.1666 84.2549 23.9202L89.9492 27.7653C98.4177 15.3426 106.886 8.53978 119.881 8.53978Z" fill="black"/>
</svg>
