<?xml version="1.0" encoding="UTF-8" standalone="no"?>
<!-- Uploaded to: SVG Repo, www.svgrepo.com, Generator: SVG Repo Mixer Tools -->

<svg
   width="800"
   height="229.51663"
   viewBox="0 -189.93 539.856 154.88241"
   version="1.1"
   id="svg12"
   xmlns="http://www.w3.org/2000/svg"
   xmlns:svg="http://www.w3.org/2000/svg">
  <defs
     id="defs12" />
  <g
     transform="matrix(4.0547385,0,0,4.0536646,-3.6087173,-21.778082)"
     id="g12">
    <path
       d="m 134.032,-7.1034577 a 3.83,3.83 0 0 1 -3.834,3.83 H 4.729 a 3.835,3.835 0 0 1 -3.839,-3.83 V -37.646458 a 3.84,3.84 0 0 1 3.839,-3.835 h 125.468 a 3.834,3.834 0 0 1 3.834,3.835 z"
       id="path3" />
    <path
       fill="#ffffff"
       d="m 30.128,-22.587458 c -0.029,-3.223 2.639,-4.791 2.761,-4.864 -1.511,-2.203 -3.853,-2.504 -4.676,-2.528 -1.967,-0.207 -3.875,1.177 -4.877,1.177 -1.022,0 -2.565,-1.157 -4.228,-1.123 -2.14,0.033 -4.142,1.272 -5.24,3.196 -2.266,3.923 -0.576,9.688 1.595,12.859 1.086,1.554 2.355,3.287 4.016,3.226 1.625,-0.066 2.232,-1.035 4.193,-1.035 1.943,0 2.513,1.035 4.207,0.996 1.744,-0.027 2.842,-1.56 3.89,-3.127 1.255,-1.779 1.759,-3.533 1.779,-3.623 -0.04,-0.014 -3.386,-1.292 -3.42,-5.154 z m -3.2,-9.478 c 0.874,-1.093 1.472,-2.58 1.306,-4.089 -1.265,0.056 -2.847,0.875 -3.758,1.944 -0.806,0.942 -1.526,2.486 -1.34,3.938 1.421,0.106 2.88,-0.717 3.792,-1.793 z"
       id="path4" />
    <linearGradient
       id="a"
       gradientUnits="userSpaceOnUse"
       x1="-23.235001"
       y1="97.431"
       x2="-23.235001"
       y2="61.386002"
       gradientTransform="matrix(4.0022,0,0,4.0011,191.95,-349.736)">
      <stop
         offset="0"
         stop-color="#1a1a1a"
         stop-opacity=".1"
         id="stop4" />
      <stop
         offset=".123"
         stop-color="#212121"
         stop-opacity=".151"
         id="stop5" />
      <stop
         offset=".308"
         stop-color="#353535"
         stop-opacity=".227"
         id="stop6" />
      <stop
         offset=".532"
         stop-color="#575757"
         stop-opacity=".318"
         id="stop7" />
      <stop
         offset=".783"
         stop-color="#858585"
         stop-opacity=".421"
         id="stop8" />
      <stop
         offset="1"
         stop-color="#b3b3b3"
         stop-opacity=".51"
         id="stop9" />
    </linearGradient>
    <g
       fill="#ffffff"
       id="g10">
      <path
         d="m 53.665,-10.867458 h -2.271 l -1.244,-3.909 h -4.324 l -1.185,3.909 H 42.43 l 4.285,-13.308 h 2.646 z m -3.89,-5.549 -1.125,-3.475 c -0.119,-0.355 -0.343,-1.191 -0.671,-2.507 h -0.04 c -0.132,0.566 -0.343,1.402 -0.632,2.507 l -1.106,3.475 z m 14.888,0.633 c 0,1.632 -0.443,2.922 -1.33,3.869 -0.794,0.843 -1.781,1.264 -2.958,1.264 -1.271,0 -2.185,-0.453 -2.74,-1.361 v 5.0350003 H 55.503 V -17.309458 c 0,-1.025 -0.027,-2.076 -0.079,-3.154 h 1.875 l 0.119,1.521 h 0.04 c 0.711,-1.146 1.79,-1.719 3.238,-1.719 1.132,0 2.077,0.447 2.833,1.342 0.755,0.897 1.134,2.075 1.134,3.536 z m -2.172,0.078 c 0,-0.934 -0.21,-1.704 -0.632,-2.311 -0.461,-0.631 -1.08,-0.947 -1.856,-0.947 -0.526,0 -1.004,0.176 -1.431,0.523 -0.428,0.35 -0.708,0.807 -0.839,1.373 a 2.784,2.784 0 0 0 -0.099,0.649 v 1.601 c 0,0.697 0.214,1.286 0.642,1.768 0.428,0.48 0.984,0.721 1.668,0.721 0.803,0 1.428,-0.311 1.875,-0.928 0.448,-0.619 0.672,-1.435 0.672,-2.449 z m 13.209,-0.078 c 0,1.632 -0.443,2.922 -1.33,3.869 -0.795,0.843 -1.781,1.264 -2.959,1.264 -1.271,0 -2.185,-0.453 -2.74,-1.361 v 5.0350003 H 66.539 V -17.309458 c 0,-1.025 -0.027,-2.076 -0.079,-3.154 h 1.875 l 0.119,1.521 h 0.04 c 0.71,-1.146 1.789,-1.719 3.238,-1.719 1.131,0 2.076,0.447 2.834,1.342 0.754,0.897 1.134,2.075 1.134,3.536 z m -2.173,0.078 c 0,-0.934 -0.211,-1.704 -0.633,-2.311 -0.461,-0.631 -1.078,-0.947 -1.854,-0.947 -0.526,0 -1.004,0.176 -1.433,0.523 -0.428,0.35 -0.707,0.807 -0.838,1.373 -0.065,0.264 -0.1,0.479 -0.1,0.649 v 1.601 c 0,0.697 0.215,1.286 0.641,1.768 0.428,0.479 0.984,0.721 1.67,0.721 0.804,0 1.429,-0.311 1.875,-0.928 0.448,-0.619 0.672,-1.435 0.672,-2.449 z m 14.513,1.105 c 0,1.133 -0.396,2.054 -1.183,2.765 -0.866,0.776 -2.075,1.165 -3.625,1.165 -1.432,0 -2.58,-0.276 -3.446,-0.829 l 0.493,-1.777 c 0.935,0.554 1.962,0.83 3.08,0.83 0.804,0 1.429,-0.182 1.875,-0.543 0.447,-0.362 0.673,-0.846 0.673,-1.45 0,-0.541 -0.187,-0.994 -0.554,-1.363 -0.369,-0.368 -0.979,-0.711 -1.836,-1.026 -2.33,-0.869 -3.496,-2.14 -3.496,-3.812 0,-1.092 0.412,-1.986 1.234,-2.685 0.822,-0.698 1.912,-1.047 3.268,-1.047 1.211,0 2.22,0.211 3.021,0.632 l -0.535,1.738 c -0.754,-0.408 -1.605,-0.612 -2.557,-0.612 -0.752,0 -1.342,0.185 -1.764,0.553 -0.355,0.329 -0.535,0.73 -0.535,1.206 0,0.525 0.205,0.961 0.613,1.303 0.354,0.315 1,0.658 1.934,1.026 1.146,0.462 1.988,1 2.527,1.618 0.543,0.618 0.813,1.389 0.813,2.308 z m 7.067,-4.263 h -2.35 v 4.659 c 0,1.185 0.414,1.776 1.244,1.776 0.381,0 0.697,-0.032 0.947,-0.099 l 0.059,1.619 c -0.42,0.157 -0.973,0.236 -1.658,0.236 -0.842,0 -1.5,-0.257 -1.975,-0.771 -0.473,-0.514 -0.711,-1.375 -0.711,-2.587 v -4.837 h -1.4 v -1.6 h 1.4 v -1.757 l 2.094,-0.632 v 2.389 h 2.35 z m 10.582,3.119 c 0,1.475 -0.422,2.686 -1.264,3.633 -0.881,0.975 -2.053,1.461 -3.514,1.461 -1.41,0 -2.531,-0.467 -3.367,-1.4 -0.836,-0.935 -1.254,-2.113 -1.254,-3.534 0,-1.487 0.432,-2.705 1.293,-3.652 0.863,-0.948 2.025,-1.422 3.486,-1.422 1.408,0 2.539,0.468 3.395,1.402 0.818,0.906 1.225,2.076 1.225,3.512 z m -2.21,0.049 c 0,-0.879 -0.19,-1.633 -0.571,-2.264 -0.447,-0.762 -1.087,-1.143 -1.916,-1.143 -0.854,0 -1.509,0.381 -1.955,1.143 -0.382,0.631 -0.572,1.398 -0.572,2.304 0,0.88 0.19,1.636 0.572,2.265 0.461,0.762 1.104,1.143 1.937,1.143 0.815,0 1.454,-0.389 1.916,-1.162 0.392,-0.646 0.589,-1.405 0.589,-2.286 z m 9.143,-2.893 a 3.71,3.71 0 0 0 -0.672,-0.059 c -0.75,0 -1.33,0.282 -1.738,0.85 -0.354,0.5 -0.532,1.132 -0.532,1.895 v 5.035 h -2.132 v -6.574 a 67.43,67.43 0 0 0 -0.062,-3.021 h 1.857 l 0.078,1.836 h 0.059 c 0.226,-0.631 0.58,-1.14 1.066,-1.521 a 2.578,2.578 0 0 1 1.541,-0.514 c 0.197,0 0.375,0.014 0.533,0.039 z m 9.535,2.469 a 5,5 0 0 1 -0.078,0.967 h -6.396 c 0.024,0.948 0.334,1.674 0.928,2.174 0.539,0.446 1.236,0.67 2.092,0.67 0.947,0 1.811,-0.15 2.588,-0.453 l 0.334,1.479 c -0.908,0.396 -1.98,0.593 -3.217,0.593 -1.488,0 -2.656,-0.438 -3.506,-1.312 -0.848,-0.875 -1.273,-2.051 -1.273,-3.524 0,-1.446 0.395,-2.651 1.186,-3.612 0.828,-1.026 1.947,-1.539 3.355,-1.539 1.383,0 2.43,0.513 3.141,1.539 0.563,0.813 0.846,1.821 0.846,3.018 z m -2.033,-0.553 c 0.015,-0.633 -0.125,-1.178 -0.414,-1.639 -0.369,-0.594 -0.937,-0.89 -1.698,-0.89 -0.697,0 -1.265,0.289 -1.697,0.869 -0.355,0.461 -0.566,1.015 -0.631,1.658 z"
         id="path10" />
    </g>
    <g
       fill="#ffffff"
       id="g11">
      <path
         d="m 45.211,-28.880458 c -0.593,0 -1.106,-0.029 -1.533,-0.078 v -6.434 a 11.606,11.606 0 0 1 1.805,-0.136 c 2.445,0 3.571,1.203 3.571,3.164 0,2.262 -1.33,3.484 -3.843,3.484 z m 0.358,-5.823 c -0.33,0 -0.611,0.02 -0.844,0.068 v 4.891 c 0.126,0.02 0.368,0.029 0.708,0.029 1.602,0 2.514,-0.912 2.514,-2.62 0,-1.523 -0.825,-2.368 -2.378,-2.368 z m 6.994,5.872 c -1.378,0 -2.271,-1.029 -2.271,-2.426 0,-1.456 0.912,-2.494 2.349,-2.494 1.358,0 2.271,0.98 2.271,2.417 0,1.474 -0.941,2.503 -2.349,2.503 z m 0.04,-4.154 c -0.757,0 -1.242,0.708 -1.242,1.698 0,0.971 0.495,1.679 1.232,1.679 0.737,0 1.232,-0.757 1.232,-1.699 0,-0.96 -0.485,-1.678 -1.222,-1.678 z m 10.167,-0.669 -1.475,4.716 h -0.961 l -0.611,-2.048 a 15.53,15.53 0 0 1 -0.379,-1.523 h -0.02 c -0.077,0.514 -0.223,1.029 -0.378,1.523 l -0.65,2.048 h -0.971 l -1.388,-4.716 h 1.077 l 0.534,2.242 c 0.126,0.534 0.232,1.038 0.32,1.514 h 0.02 c 0.077,-0.397 0.203,-0.893 0.388,-1.504 l 0.67,-2.251 H 59.8 l 0.641,2.203 c 0.155,0.534 0.281,1.058 0.379,1.553 h 0.028 c 0.068,-0.485 0.175,-1 0.32,-1.553 l 0.573,-2.203 z m 5.43,4.716 h -1.048 v -2.708 c 0,-0.834 -0.32,-1.252 -0.951,-1.252 -0.621,0 -1.048,0.534 -1.048,1.155 v 2.805 h -1.048 v -3.368 c 0,-0.417 -0.01,-0.864 -0.039,-1.349 h 0.922 l 0.049,0.728 h 0.029 c 0.282,-0.504 0.854,-0.824 1.495,-0.824 0.99,0 1.64,0.757 1.64,1.989 z m 2.89,0 h -1.049 v -6.88 h 1.049 z m 3.821,0.107 c -1.377,0 -2.271,-1.029 -2.271,-2.426 0,-1.456 0.912,-2.494 2.348,-2.494 1.359,0 2.271,0.98 2.271,2.417 0.001,1.474 -0.941,2.503 -2.348,2.503 z m 0.039,-4.154 c -0.757,0 -1.242,0.708 -1.242,1.698 0,0.971 0.496,1.679 1.231,1.679 0.738,0 1.232,-0.757 1.232,-1.699 10e-4,-0.96 -0.483,-1.678 -1.221,-1.678 z m 6.441,4.047 -0.076,-0.543 h -0.028 c -0.32,0.437 -0.787,0.65 -1.379,0.65 -0.845,0 -1.445,-0.592 -1.445,-1.388 0,-1.164 1.009,-1.766 2.756,-1.766 v -0.087 c 0,-0.621 -0.329,-0.932 -0.979,-0.932 -0.465,0 -0.873,0.117 -1.232,0.35 l -0.213,-0.689 c 0.436,-0.272 0.98,-0.408 1.619,-0.408 1.232,0 1.854,0.65 1.854,1.951 v 1.737 c 0,0.476 0.021,0.845 0.068,1.126 z m -0.144,-2.349 c -1.164,0 -1.748,0.282 -1.748,0.951 0,0.495 0.301,0.737 0.719,0.737 0.533,0 1.029,-0.407 1.029,-0.96 z m 6.11,2.349 -0.049,-0.757 h -0.029 c -0.301,0.572 -0.807,0.864 -1.514,0.864 -1.137,0 -1.979,-1 -1.979,-2.407 0,-1.475 0.873,-2.514 2.065,-2.514 0.631,0 1.078,0.213 1.33,0.641 h 0.021 v -2.707 h 1.049 v 5.609 c 0,0.456 0.011,0.883 0.039,1.271 z m -0.155,-2.775 c 0,-0.66 -0.437,-1.223 -1.104,-1.223 -0.777,0 -1.252,0.689 -1.252,1.659 0,0.951 0.493,1.602 1.231,1.602 0.659,0 1.125,-0.573 1.125,-1.252 z m 7.7,2.882 c -1.377,0 -2.27,-1.029 -2.27,-2.426 0,-1.456 0.912,-2.494 2.348,-2.494 1.359,0 2.271,0.98 2.271,2.417 10e-4,1.474 -0.94,2.503 -2.349,2.503 z m 0.039,-4.154 c -0.756,0 -1.241,0.708 -1.241,1.698 0,0.971 0.495,1.679 1.231,1.679 0.738,0 1.232,-0.757 1.232,-1.699 0.002,-0.96 -0.483,-1.678 -1.222,-1.678 z m 7.946,4.047 h -1.049 v -2.708 c 0,-0.834 -0.32,-1.252 -0.951,-1.252 -0.621,0 -1.047,0.534 -1.047,1.155 v 2.805 h -1.049 v -3.368 c 0,-0.417 -0.01,-0.864 -0.039,-1.349 h 0.922 l 0.049,0.728 h 0.029 c 0.281,-0.504 0.854,-0.825 1.494,-0.825 0.99,0 1.641,0.757 1.641,1.989 z m 7.051,-3.93 h -1.153 v 2.29 c 0,0.583 0.202,0.874 0.61,0.874 0.185,0 0.34,-0.02 0.465,-0.049 l 0.029,0.796 c -0.203,0.078 -0.475,0.117 -0.813,0.117 -0.826,0 -1.32,-0.456 -1.32,-1.65 v -2.378 h -0.688 v -0.786 h 0.688 v -0.864 l 1.029,-0.311 v 1.174 h 1.153 z m 5.548,3.93 h -1.047 v -2.688 c 0,-0.844 -0.319,-1.271 -0.951,-1.271 -0.543,0 -1.049,0.369 -1.049,1.116 v 2.843 h -1.047 v -6.88 h 1.047 v 2.833 h 0.021 c 0.33,-0.514 0.808,-0.767 1.418,-0.767 0.998,0 1.608,0.776 1.608,2.009 z m 5.684,-2.106 h -3.145 c 0.02,0.893 0.611,1.397 1.486,1.397 0.465,0 0.893,-0.078 1.271,-0.223 l 0.163,0.728 c -0.446,0.194 -0.971,0.291 -1.582,0.291 -1.475,0 -2.348,-0.932 -2.348,-2.377 0,-1.446 0.894,-2.533 2.23,-2.533 1.205,0 1.961,0.893 1.961,2.242 a 2.02,2.02 0 0 1 -0.036,0.475 z m -0.961,-0.747 c 0,-0.728 -0.367,-1.242 -1.037,-1.242 -0.602,0 -1.078,0.524 -1.146,1.242 z"
         id="path11" />
    </g>
  </g>
</svg>
