<?xml version="1.0" encoding="UTF-8" standalone="no"?>
<!-- Uploaded to: SVG Repo, www.svgrepo.com, Generator: SVG Repo Mixer Tools -->

<svg
   width="800"
   height="237.03703"
   viewBox="0 -47.5 135 39.999999"
   id="Layer_1"
   version="1.1"
   xmlns="http://www.w3.org/2000/svg"
   xmlns:svg="http://www.w3.org/2000/svg">
  <defs
     id="defs23" />
  <style
     id="style1">.st0{fill:#a6a6a6}.st1{stroke:#ffffff;stroke-width:.2;stroke-miterlimit:10}.st1,.st2{fill:#fff}.st3{fill:url(#SVGID_1_)}.st4{fill:url(#SVGID_2_)}.st5{fill:url(#SVGID_3_)}.st6{fill:url(#SVGID_4_)}.st7,.st8,.st9{opacity:.2;enable-background:new}.st8,.st9{opacity:.12}.st9{opacity:.25;fill:#fff}</style>
  <path
     d="M 130,-7.4999995 H 5 c -2.8,0 -5,-2.2 -5,-5.0000005 v -30 c 0,-2.8 2.2,-5 5,-5 h 125 c 2.8,0 5,2.2 5,5 v 30 c 0,2.8000005 -2.2,5.0000005 -5,5.0000005 z"
     id="path1" />
  <path
     class="st1"
     d="m 47.4,-37.300001 c 0,0.800001 -0.2,1.5 -0.7,2 -0.6,0.6 -1.3,0.9 -2.2,0.9 -0.9,0 -1.6,-0.3 -2.2,-0.9 -0.6,-0.6 -0.9,-1.3 -0.9,-2.199999 0,-0.900001 0.3,-1.600001 0.9,-2.200001 0.6,-0.6 1.3,-0.899999 2.2,-0.899999 0.4,0 0.8,0.1 1.2,0.3 0.4,0.2 0.7,0.399999 0.9,0.7 l -0.5,0.5 c -0.4,-0.5 -0.9,-0.7 -1.6,-0.7 -0.6,0 -1.2,0.2 -1.6,0.7 -0.5,0.399999 -0.7,1 -0.7,1.699999 0,0.7 0.2,1.300001 0.7,1.7 0.5,0.4 1,0.700001 1.6,0.700001 0.7,0 1.2,-0.200001 1.7,-0.700001 0.3,-0.299999 0.5,-0.7 0.5,-1.2 h -2.2 v -0.8 h 2.9 z m 4.6,-2.5 h -2.7 v 1.9 h 2.5 v 0.7 h -2.5 v 1.9 H 52 v 0.8 h -3.5 v -6 H 52 Z M 55.3,-34.5 h -0.8 v -5.300001 H 52.8 V -40.5 H 57 v 0.699999 h -1.7 z m 4.6,0 v -6 h 0.8 v 6 z m 4.2,0 h -0.8 v -5.300001 H 61.6 V -40.5 h 4.1 v 0.699999 H 64 V -34.5 Z m 9.5,-0.800001 c -0.6,0.6 -1.3,0.9 -2.2,0.9 -0.9,0 -1.6,-0.3 -2.2,-0.9 -0.6,-0.6 -0.9,-1.3 -0.9,-2.199999 0,-0.900001 0.3,-1.600001 0.9,-2.200001 0.6,-0.6 1.3,-0.899999 2.2,-0.899999 0.9,0 1.6,0.3 2.2,0.899999 0.6,0.600001 0.9,1.3 0.9,2.200001 0,0.899999 -0.3,1.599999 -0.9,2.199999 z m -3.8,-0.5 c 0.4,0.4 1,0.7 1.6,0.7 0.6,0 1.2,-0.2 1.6,-0.7 0.4,-0.4 0.7,-1 0.7,-1.699999 0,-0.700001 -0.2,-1.300001 -0.7,-1.700001 -0.4,-0.399999 -1,-0.7 -1.6,-0.7 -0.6,0 -1.2,0.2 -1.6,0.7 -0.4,0.4 -0.7,1 -0.7,1.700001 0,0.699999 0.2,1.299999 0.7,1.699999 z M 75.6,-34.5 v -6 h 0.9 l 2.9,4.699999 V -40.5 h 0.8 v 6 h -0.8 l -3.1,-4.900001 v 4.9 z"
     id="path3" />
  <path
     class="st2"
     d="m 68.1,-25.700001 c -2.4,0 -4.3,1.8 -4.3,4.3 0,2.4 1.9,4.3 4.3,4.3 2.4,0 4.3,-1.8 4.3,-4.3 0,-2.6 -1.9,-4.3 -4.3,-4.3 z m 0,6.8 c -1.3,0 -2.4,-1.1 -2.4,-2.6 0,-1.5 1.1,-2.6 2.4,-2.6 1.3,0 2.4,1 2.4,2.6 0,1.5 -1.1,2.6 -2.4,2.6 z m -9.3,-6.8 c -2.4,0 -4.3,1.8 -4.3,4.3 0,2.4 1.9,4.3 4.3,4.3 2.4,0 4.3,-1.8 4.3,-4.3 0,-2.6 -1.9,-4.3 -4.3,-4.3 z m 0,6.8 c -1.3,0 -2.4,-1.1 -2.4,-2.6 0,-1.5 1.1,-2.6 2.4,-2.6 1.3,0 2.4,1 2.4,2.6 0,1.5 -1.1,2.6 -2.4,2.6 z m -11.1,-5.5 v 1.8 H 52 c -0.1,1 -0.5,1.8 -1,2.3 -0.6,0.6 -1.6,1.3 -3.3,1.3 -2.7,0 -4.7,-2.1 -4.7,-4.8 0,-2.7 2.1,-4.8 4.7,-4.8 1.4,0 2.5,0.6 3.3,1.3 l 1.3,-1.3 c -1.1,-1 -2.5,-1.8 -4.5,-1.8 -3.6,0 -6.7,3 -6.7,6.6 0,3.6 3.1,6.6 6.7,6.6 2,0 3.4,-0.6 4.6,-1.9 1.2,-1.2 1.6,-2.9 1.6,-4.2 0,-0.4 0,-0.8 -0.1,-1.1 z m 45.399999,1.4 c -0.4,-1 -1.4,-2.7 -3.6,-2.7 -2.2,0 -4,1.7 -4,4.3 0,2.4 1.8,4.3 4.2,4.3 1.9,0 3.1,-1.2 3.5,-1.9 l -1.4,-1 c -0.5,0.7 -1.1,1.2 -2.1,1.2 -1,0 -1.6,-0.4 -2.1,-1.299999 l 5.7,-2.4 z m -5.8,1.4 c 0,-1.6 1.3,-2.5 2.2,-2.5 0.7,0 1.4,0.4 1.6,0.9 z m -4.699999,4.1 h 1.899999 v -12.5 H 82.6 Z m -3,-7.3 c -0.5,-0.5 -1.3,-1 -2.3,-1 -2.1,0 -4.1,1.9 -4.1,4.3 0,2.4 1.9,4.2 4.1,4.2 1,0 1.8,-0.5 2.2,-1 h 0.1 v 0.6 c 0,1.600001 -0.9,2.5 -2.3,2.5 -1.1,0 -1.9,-0.799999 -2.1,-1.5 L 73.6,-16 c 0.5,1.1 1.7,2.5 3.8,2.5 2.2,0 4,-1.3 4,-4.4 v -7.6 h -1.8 z m -2.2,5.9 c -1.3,0 -2.4,-1.1 -2.4,-2.6 0,-1.5 1.1,-2.6 2.4,-2.6 1.3,0 2.3,1.1 2.3,2.6 0,1.5 -1,2.6 -2.3,2.6 z m 24.4,-11.1 h -4.500001 v 12.5 h 1.9 v -4.7 H 101.8 c 2.1,0 4.1,-1.5 4.1,-3.9 0,-2.4 -2,-3.9 -4.1,-3.9 z m 0.1,6 h -2.700001 v -4.3 H 101.9 c 1.4,0 2.2,1.2 2.2,2.1 -0.1,1.1 -0.9,2.2 -2.2,2.2 z m 11.5,-1.8 c -1.4,0 -2.8,0.6 -3.3,1.9 l 1.7,0.7 c 0.4,-0.7 1,-0.899999 1.7,-0.899999 1,0 1.9,0.6 2,1.6 v 0.1 c -0.3,-0.2 -1.1,-0.5 -1.9,-0.5 -1.8,0 -3.6,1 -3.6,2.8 0,1.7 1.5,2.799999 3.1,2.799999 1.3,0 1.9,-0.6 2.4,-1.2 h 0.1 v 1 h 1.8 v -4.8 c -0.2,-2.2 -1.9,-3.5 -4,-3.5 z m -0.2,6.9 c -0.6,0 -1.5,-0.3 -1.5,-1.1 0,-1 1.1,-1.3 2,-1.3 0.8,0 1.2,0.200001 1.7,0.4 -0.2,1.2 -1.2,2 -2.2,2 z m 10.5,-6.6 -2.1,5.4 h -0.1 l -2.2,-5.4 h -2 l 3.3,7.6 -1.9,4.2 h 1.9 l 5.1,-11.8 z m -16.8,8 h 1.9 v -12.5 h -1.9 z"
     id="path4" />
  <path
     d="m 13.286607,-39.686509 13.951522,8.021805 -2.990373,2.990371 z m -2.890444,-0.648463 12.806611,12.756647 -12.805548,12.756648 c -0.651652,-0.288088 -1.098134,-0.929108 -1.098134,-1.674309 0,-0.02443 0,-0.04892 0.00105,-0.07229 v 0.0033 -22.025413 c -0.00105,-0.0202 -0.00105,-0.04465 -0.00105,-0.0691 0,-0.745202 0.446482,-1.386222 1.086441,-1.670058 l 0.01169,-0.0043 z m 21.178159,11.261994 c 0.440105,0.326357 0.721814,0.845127 0.721814,1.428744 0,0.02339 0,0.04571 -0.0013,0.0691 v -0.0032 c 0.0039,0.04571 0.0075,0.09993 0.0075,0.154143 0,0.548536 -0.265761,1.035415 -0.676106,1.337322 l -0.0039,0.0032 -2.990303,1.693443 -3.238065,-3.188099 3.239126,-3.239125 z m -18.287715,13.60284 10.962212,-11.012178 2.990371,2.990371 z"
     id="path1-3"
     style="fill:#ffffff;fill-opacity:1;stroke-width:1.06306" />
</svg>
