<svg width="673" height="107" viewBox="0 0 673 107" fill="none" xmlns="http://www.w3.org/2000/svg">
<path d="M59.1896 2.63106L0.786499 75.8358L3.41463 81.6034H58.7516V106.892H66.052V81.6034H82.6969V74.9484H66.052V2.63106H59.1896ZM58.7516 74.9484H9.98498L58.7516 13.7227V74.9484Z" fill="black"/>
<path d="M120.367 8.69464C132.632 8.69464 143.436 17.42 143.436 30.8779C143.436 41.8216 137.596 50.6949 120.805 66.2232L82.6969 101.125V106.892H152.489V99.498H94.6695L125.915 70.8077C143.874 54.2442 151.467 44.7794 151.467 30.4342C151.467 14.1665 138.472 1.89178 121.097 1.89178C103.138 1.89178 93.6475 10.3214 84.741 24.075L90.4353 27.9201C98.9038 15.4975 107.372 8.69464 120.367 8.69464Z" fill="black"/>
<circle cx="245.218" cy="10.9745" r="10.4149" fill="black"/>
<path d="M223.96 0.421234V21.8027H183.96C183.67 21.8027 183.282 22.0452 182.797 22.53C182.409 22.9179 182.215 23.2573 182.215 23.5482V42.8934H223.96V64.4203H182.215V106.602H160.833V21.6573C160.93 20.6876 160.979 20.2513 160.979 20.3482C162.724 11.1362 167.815 4.93026 176.251 1.7303C178.579 0.857589 180.567 0.421234 182.215 0.421234H223.96Z" fill="black"/>
<path d="M234.542 28.3481H255.778V106.892H234.542V28.3481Z" fill="black"/>
<path d="M305.464 28.9299C313.125 28.9299 320.058 31.0147 326.264 35.1844C332.567 39.354 337.222 44.9297 340.228 51.9114C342.264 56.6629 343.282 60.784 343.282 64.2749V106.892H321.901V65.4385C321.901 64.4688 321.707 63.5961 321.319 62.8204C320.349 59.2325 318.41 56.275 315.501 53.9478C312.689 51.6205 309.392 50.4569 305.61 50.4569C301.925 50.4569 298.677 51.572 295.865 53.8023C293.052 56.0326 291.113 58.9416 290.046 62.5294C290.046 62.5294 289.998 62.7234 289.901 63.1113C289.804 63.4022 289.707 63.5961 289.61 63.6931C289.61 63.6931 289.513 64.5173 289.319 66.1658V106.892H267.938V65.0021C267.938 63.9355 268.083 62.5294 268.374 60.784C269.829 51.766 274.095 44.2024 281.174 38.0934C288.35 31.9844 296.446 28.9299 305.464 28.9299Z" fill="black"/>
<path d="M404.621 102.529C398.803 105.147 392.936 106.456 387.021 106.456C376.355 106.456 367.24 102.674 359.676 95.1108C352.113 87.4503 348.331 78.2868 348.331 67.6203C348.331 56.8568 352.113 47.7418 359.676 40.2752C367.337 32.7117 376.549 28.9299 387.312 28.9299C395.36 28.9299 402.73 31.3056 409.421 36.0571C416.209 40.7116 420.96 46.8206 423.675 54.3841C425.227 58.7477 426.003 62.384 426.003 65.293V106.747H404.621V102.529ZM369.712 67.6203C369.712 72.3717 371.409 76.4929 374.803 79.9837C378.294 83.3776 382.415 85.0746 387.167 85.0746C391.918 85.0746 395.991 83.3776 399.385 79.9837C402.876 76.4929 404.621 72.3717 404.621 67.6203C404.621 62.9658 402.924 58.9416 399.53 55.5477C396.136 52.0569 392.064 50.3114 387.312 50.3114C382.561 50.3114 378.44 52.0084 374.949 55.4023C371.458 58.6992 369.712 62.7719 369.712 67.6203Z" fill="black"/>
<path d="M468.814 28.9299C476.475 28.9299 483.408 31.0147 489.614 35.1844C495.917 39.354 500.572 44.9297 503.578 51.9114C505.614 56.6629 506.632 60.784 506.632 64.2749V106.892H485.251V65.4385C485.251 64.4688 485.057 63.5961 484.669 62.8204C483.699 59.2325 481.76 56.275 478.851 53.9478C476.039 51.6205 472.742 50.4569 468.96 50.4569C465.275 50.4569 462.027 51.572 459.215 53.8023C456.402 56.0326 454.463 58.9416 453.396 62.5294C453.396 62.5294 453.348 62.7234 453.251 63.1113C453.154 63.4022 453.057 63.5961 452.96 63.6931C452.96 63.6931 452.863 64.5173 452.669 66.1658V106.892H431.288V65.0021C431.288 63.9355 431.433 62.5294 431.724 60.784C433.179 51.766 437.445 44.2024 444.524 38.0934C451.699 31.9844 459.796 28.9299 468.814 28.9299Z" fill="black"/>
<path d="M511.681 67.6203C511.681 58.2144 514.735 49.9236 520.844 42.7479C526.953 35.4753 534.614 31.0147 543.826 29.3663C546.153 28.9784 548.383 28.7845 550.517 28.7845C557.595 28.8814 564.189 30.7238 570.298 34.3117C576.407 37.8995 581.159 42.7479 584.553 48.8569C584.746 49.0508 585.328 50.1175 586.298 52.0569C586.298 51.572 586.589 52.3478 587.171 54.3841C587.462 55.0629 587.704 55.8386 587.898 56.7113V57.1477H564.626C560.262 52.5902 555.607 50.3114 550.662 50.3114C545.717 50.3114 541.547 52.0084 538.153 55.4023C534.856 58.7962 533.208 62.9173 533.208 67.7657C533.208 72.5172 534.905 76.5899 538.299 79.9837C541.693 83.3776 545.765 85.0746 550.517 85.0746C555.85 85.0746 560.553 82.7958 564.626 78.2383H587.898V78.6747C587.607 79.5474 587.219 80.711 586.734 82.1655C586.056 84.1049 584.407 86.9655 581.789 90.7472C580.916 92.0078 579.025 94.0926 576.116 97.0017C576.116 97.0017 575.971 97.1471 575.68 97.438C575.389 97.632 575.195 97.7774 575.098 97.8744C567.535 103.596 559.341 106.456 550.517 106.456C539.85 106.456 530.687 102.674 523.026 95.1108C515.463 87.5473 511.681 78.3838 511.681 67.6203Z" fill="black"/>
<path d="M593.075 67.7657C593.075 57.0992 596.857 47.9357 604.42 40.2752C611.984 32.6147 621.099 28.7845 631.765 28.7845C646.505 28.7845 657.801 35.4753 665.656 48.8569C666.044 49.4387 666.771 50.7478 667.838 52.7841C669.195 55.6932 670.747 59.1356 672.492 63.1113C672.492 63.2082 672.541 63.3537 672.638 63.5476V63.6931C672.638 63.79 672.589 63.8385 672.492 63.8385L625.511 83.7655C626.869 84.6382 628.953 85.0746 631.765 85.0746C637.099 85.0746 641.802 82.7958 645.874 78.2383H669.292V78.3838C668.904 80.5171 667.886 83.0382 666.238 85.9473C658.383 99.6198 646.796 106.456 631.475 106.456C620.905 106.456 611.839 102.674 604.275 95.1108C596.808 87.4503 593.075 78.3353 593.075 67.7657ZM632.056 50.3114C624.493 50.3114 619.208 53.6084 616.202 60.2022C615.232 62.3355 614.748 63.9355 614.748 65.0021H614.893L641.947 53.6568C641.85 53.3659 641.317 52.9296 640.347 52.3478C637.729 50.9902 634.965 50.3114 632.056 50.3114Z" fill="black"/>
</svg>
